# xmcd
#
# Track frame offsets:
#	182
#	14220
#	27795
#	45605
#	59757
#	72575
#	85745
#	102322
#	113402
#	128210
#	144755
#
# Disc length: 2193 seconds
#
# Revision: 11
# Processed by: cddbd v1.4PL0 Copyright (c) Steve Scherf et al.
# Submitted via: dBpowerAMP V4.0
#
DISCID=96088f0b
DTITLE=Randy Travis - Greatest Hits Volume One
DYEAR=1992
DGENRE=Country
TTITLE0=If I Didn't Have You
TTITLE1=1982
TTITLE2=Hard Rock Bottom of Your Heart
TTITLE3=On the Other Hand
TTITLE4=Honky Tonk Moon
TTITLE5=An Old Pair of Shoes
TTITLE6=I Told You So
TTITLE7=Too Gone Too Long
TTITLE8=Heroes and Friends
TTITLE9=Deeper Than the Holler
TTITLE10=Reasons I Cheat
EXTD=
EXTT0=
EXTT1=
EXTT2=
EXTT3=
EXTT4=
EXTT5=
EXTT6=
EXTT7=
EXTT8=
EXTT9=
EXTT10=
PLAYORDER=
